<?xml version="1.0" encoding="UTF-8"?>
<svg id="Layer_1" data-name="Layer 1" xmlns="http://www.w3.org/2000/svg" viewBox="0 0 885.23 313.57">
  <defs>
    <style>
      .cls-1 {
        fill: #c6c691;
      }
    </style>
  </defs>
  <g>
    <path class="cls-1" d="M124.26,77.7c0-37.31-15.06-51-40.39-51-18.83,0-38.34,16.09-56.14,32.52v120.49H0V3.08h27.73v24.65C42.45,14.72,62.3.34,84.55.34c35.94,0,67.09,18.49,67.09,71.2v108.17h-27.39v-102.01Z"/>
    <path class="cls-1" d="M265.62,157.12c19.85,0,38.68-5.82,57.51-18.83l8.56,23.28c-11.64,9.24-36.97,20.88-65.38,20.88-50.32,0-86.26-33.55-86.26-89.69C180.04,30.81,217.7.34,263.57.34c56.48,0,80.78,36.63,80.78,98.24h-135.9c1.71,30.81,22.93,58.53,57.17,58.53ZM209.14,74.96h106.8c-2.06-23.62-16.43-50.66-52.37-50.66-28.07,0-48.95,20.19-54.43,50.66Z"/>
  </g>
  <g>
    <path class="cls-1" d="M676.1,156.09c-15.06,12.67-35.26,26.02-57.17,26.02-15.41,0-29.44-4.11-39.71-11.3-16.09-12.32-26.36-32.18-26.36-51.69V3.08h27.73v112.62c0,11.64,4.79,24.99,13.35,31.83,6.85,4.45,16.09,8.22,26.02,8.22,18.14,0,38.34-15.41,56.14-31.84V3.08h28.07v176.63h-28.07v-23.62Z"/>
    <path class="cls-1" d="M810.61,182.45c-24.3,0-48.61-10.27-68.8-24.99l5.82-25.33c20.54,15.4,40.73,25.67,62.98,25.67,17.12,0,46.55-6.16,46.55-28.75,0-19.17-28.07-25.67-45.19-25.67-24.99,0-74.97-7.87-74.97-46.21,0-47.58,48.27-57.17,74.97-57.17s47.92,7.19,64.7,21.56l-5.82,25.33c-20.88-15.75-39.36-22.59-58.88-22.59s-47.92,6.16-47.92,31.84c0,16.77,31.84,22.25,47.92,22.25,26.01,0,73.25,8.56,73.25,50.66,0,45.18-51,53.4-74.62,53.4Z"/>
  </g>
  <polygon class="cls-1" points="476.67 90.03 522.45 3.08 490.96 3.08 449.28 80.96 449.28 98.62 495.07 179.71 525.53 179.71 476.67 90.03"/>
  <polygon class="cls-1" points="435.95 80.87 394.32 3.08 362.83 3.08 408.61 90.03 359.75 179.71 390.21 179.71 435.95 98.71 435.95 80.87"/>
  <g>
    <path class="cls-1" d="M168.07,267.69c-6.38,0-11.86,5.19-11.86,13.47,0,7.72,5.4,12.84,11.86,12.84,3.65,0,7.02-1.4,10.45-4l2.24,4.7c-3.44,2.67-7.79,4.91-12.7,4.91-8.63,0-17.68-6.38-17.68-18.38,0-12.7,9.05-18.94,17.68-18.94,4.28,0,9.47,1.68,13.4,4.84l-2.24,4.7c-3.3-2.38-7.44-4.14-11.15-4.14Z"/>
    <path class="cls-1" d="M198.59,299.61c-9.61,0-16.98-6.52-16.98-18.52s7.37-18.8,16.98-18.8,16.91,6.8,16.91,18.8-7.37,18.52-16.91,18.52ZM198.59,267.76c-7.01,0-11.22,6.03-11.22,13.26s4.21,13.05,11.22,13.05,11.15-5.89,11.15-13.05-4.07-13.26-11.15-13.26Z"/>
    <path class="cls-1" d="M243.84,278.14c0-7.65-3.09-10.45-8.28-10.45-3.86,0-7.86,3.3-11.5,6.66v24.69h-5.68v-36.2h5.68v5.05c3.02-2.67,7.09-5.61,11.64-5.61,7.37,0,13.75,3.79,13.75,14.59v22.17h-5.61v-20.91Z"/>
    <path class="cls-1" d="M279.61,278.14c0-7.65-3.09-10.45-8.28-10.45-3.86,0-7.86,3.3-11.51,6.66v24.69h-5.68v-36.2h5.68v5.05c3.02-2.67,7.09-5.61,11.65-5.61,7.37,0,13.75,3.79,13.75,14.59v22.17h-5.61v-20.91Z"/>
    <path class="cls-1" d="M305.08,294.41c4.07,0,7.93-1.19,11.79-3.86l1.75,4.77c-2.38,1.89-7.58,4.28-13.4,4.28-10.31,0-17.68-6.87-17.68-18.38,0-12.7,7.72-18.94,17.12-18.94,11.57,0,16.56,7.51,16.56,20.13h-27.85c.35,6.31,4.7,12,11.72,12ZM293.51,277.58h21.89c-.42-4.84-3.37-10.38-10.73-10.38-5.75,0-10.03,4.14-11.15,10.38Z"/>
    <path class="cls-1" d="M340.79,267.69c-6.38,0-11.86,5.19-11.86,13.47,0,7.72,5.4,12.84,11.86,12.84,3.65,0,7.01-1.4,10.45-4l2.24,4.7c-3.44,2.67-7.79,4.91-12.7,4.91-8.63,0-17.68-6.38-17.68-18.38,0-12.7,9.05-18.94,17.68-18.94,4.28,0,9.47,1.68,13.4,4.84l-2.24,4.7c-3.3-2.38-7.44-4.14-11.15-4.14Z"/>
    <path class="cls-1" d="M370.95,299.26c-2.6,0-4.77-.84-6.73-2.74-2.38-2.24-4.07-6.38-4.07-10.45v-18.38h-5.47v-4.84h5.47v-7.86l5.75-3.86v11.72h10.8v4.84h-10.8v17.68c0,2.39.98,4.98,2.1,6.45.98.98,2.24,1.75,3.37,1.75s3.51-1.12,5.47-2.81l1.26,5.26c-1.96,2.1-4.63,3.23-7.16,3.23Z"/>
    <path class="cls-1" d="M394.74,294.41c4.07,0,7.93-1.19,11.79-3.86l1.75,4.77c-2.38,1.89-7.58,4.28-13.4,4.28-10.31,0-17.68-6.87-17.68-18.38,0-12.7,7.72-18.94,17.12-18.94,11.58,0,16.56,7.51,16.56,20.13h-27.85c.35,6.31,4.7,12,11.72,12ZM383.16,277.58h21.89c-.42-4.84-3.37-10.38-10.73-10.38-5.75,0-10.03,4.14-11.15,10.38Z"/>
    <path class="cls-1" d="M438.93,296.17c-2.53,1.82-5.89,3.44-9.4,3.44-8.21,0-16.84-6.31-16.84-18.03,0-12.49,8.35-19.78,16.7-19.78,3.72,0,7.01,1.33,9.54,3.23v-17.75h5.54v51.77h-5.54v-2.88ZM429.74,267.27c-6.03,0-11.43,5.68-11.43,14.1,0,7.86,5.4,12.77,11.43,12.77,3.58,0,7.02-2.39,9.19-4.91l.07-17.68c-2.32-2.24-5.54-4.28-9.26-4.28Z"/>
    <path class="cls-1" d="M481.73,299.61c-3.58,0-6.95-1.68-9.47-3.93v3.37h-5.68v-51.84h5.68v17.54c2.6-1.75,5.82-2.81,9.33-2.81,8.07,0,16.84,6.03,16.84,18.17s-8.49,19.5-16.7,19.5ZM481.38,267.27c-3.44,0-6.87,1.82-9.12,3.93v17.68l-.07-.07c2.03,2.67,5.54,5.26,9.19,5.26,5.89,0,11.43-5.75,11.43-13.75s-5.54-13.05-11.43-13.05Z"/>
    <path class="cls-1" d="M503.83,313.08h-3.37v-5.19h2.6c2.24,0,5.33-.91,6.87-3.93l2.46-6.87c-5.26-11.15-10.03-22.31-15.71-34.23h6.38l12.21,26.73c1.75-4.21,3.51-8.7,10.66-26.73h6.24l-17.4,43.91c-2.03,4.98-6.17,6.31-10.94,6.31Z"/>
    <path class="cls-1" d="M576.01,296.17c-2.53,1.82-5.89,3.44-9.4,3.44-8.21,0-16.84-6.31-16.84-18.03,0-12.49,8.35-19.78,16.7-19.78,3.72,0,7.01,1.33,9.54,3.23v-17.75h5.54v51.77h-5.54v-2.88ZM566.82,267.27c-6.03,0-11.43,5.68-11.43,14.1,0,7.86,5.4,12.77,11.43,12.77,3.58,0,7.01-2.39,9.19-4.91l.07-17.68c-2.31-2.24-5.54-4.28-9.26-4.28Z"/>
    <path class="cls-1" d="M602.46,294.41c4.07,0,7.93-1.19,11.79-3.86l1.75,4.77c-2.38,1.89-7.58,4.28-13.4,4.28-10.31,0-17.68-6.87-17.68-18.38,0-12.7,7.72-18.94,17.12-18.94,11.58,0,16.56,7.51,16.56,20.13h-27.85c.35,6.31,4.7,12,11.72,12ZM590.88,277.58h21.89c-.42-4.84-3.37-10.38-10.73-10.38-5.75,0-10.03,4.14-11.15,10.38Z"/>
    <path class="cls-1" d="M634.52,299.61c-4.98,0-9.96-2.1-14.1-5.12l1.19-5.19c4.21,3.16,8.35,5.26,12.91,5.26,3.51,0,9.54-1.26,9.54-5.89,0-3.93-5.75-5.26-9.26-5.26-5.12,0-15.36-1.61-15.36-9.47,0-9.75,9.89-11.72,15.36-11.72s9.82,1.47,13.26,4.42l-1.19,5.19c-4.28-3.23-8.07-4.63-12.07-4.63s-9.82,1.26-9.82,6.52c0,3.44,6.52,4.56,9.82,4.56,5.33,0,15.01,1.75,15.01,10.38,0,9.26-10.45,10.94-15.29,10.94Z"/>
    <path class="cls-1" d="M658.37,255.83c-1.82,0-3.37-1.54-3.37-3.58s1.54-3.65,3.37-3.65,3.44,1.61,3.44,3.65-1.54,3.58-3.44,3.58ZM655.5,262.85h5.75v36.2h-5.75v-36.2Z"/>
    <path class="cls-1" d="M691.48,310.55c-2.95,2.1-6.8,3.02-10.38,3.02-5.61,0-10.45-1.89-13.19-3.79l1.68-4.84c3.51,1.89,7.72,3.44,11.43,3.44,2.81,0,5.68-1.12,7.72-3.23,1.47-1.68,2.53-4,2.53-7.09v-2.39c-2.45,2.03-6.1,3.37-9.75,3.37-8.21,0-16.49-6.31-16.49-17.96s8.28-18.8,16.7-18.8c3.72,0,7.09,1.47,9.61,3.44v-2.88h5.68v35.78c0,5.26-2.24,9.4-5.54,11.93ZM682.08,267.83c-6.1,0-11.29,4.98-11.29,13.05s4.91,12.63,10.94,12.63c3.72,0,7.51-2.24,9.68-4.77l-.07.07v-16.77s-3.3-4.21-9.26-4.21Z"/>
    <path class="cls-1" d="M726.84,278.14c0-7.65-3.09-10.45-8.28-10.45-3.86,0-7.86,3.3-11.51,6.66v24.69h-5.68v-36.2h5.68v5.05c3.02-2.67,7.09-5.61,11.64-5.61,7.37,0,13.75,3.79,13.75,14.59v22.17h-5.61v-20.91Z"/>
  </g>
</svg>